<svg width="135" height="33" viewBox="0 0 135 33" fill="none" xmlns="http://www.w3.org/2000/svg">
<path d="M13.2164 2.42824C13.3839 3.1283 13.3288 3.86317 13.0588 4.53043C12.7888 5.19769 12.3173 5.76408 11.7101 6.15067C11.0878 6.51169 10.3684 6.66945 9.65211 6.60194C8.93585 6.53444 8.25854 6.24503 7.71466 5.7741C6.29686 4.49939 6.12929 1.99518 7.66006 0.812736C9.58247 -0.669082 12.548 -0.121167 13.2164 2.42824Z" fill="#52228F"/>
<path d="M19.2472 6.40161C19.9288 6.13236 20.6198 5.83675 21.3504 5.80662C22.0809 5.7765 22.8811 6.09847 23.1918 6.76124C23.4629 7.33928 23.2991 8.04535 22.9395 8.57256C22.5799 9.09976 22.0546 9.48763 21.5386 9.86232L17.0047 13.1799C15.5379 14.2456 14.0203 15.3377 12.2561 15.7557C10.264 16.2264 8.13826 15.7783 6.2987 14.8802C4.45913 13.982 2.86246 12.6527 1.31851 11.2971C0.463685 10.5439 -0.703694 9.09411 0.548414 8.06042C1.42018 7.34116 3.24092 8.12255 4.23884 8.2487C7.43972 8.66858 9.17384 9.04139 12.3502 8.43699C14.6956 7.92697 17.0007 7.24671 19.2472 6.40161Z" fill="#52228F"/>
<path d="M5.6491 23.2505C6.64325 20.1682 9.51463 17.8203 12.7117 17.295C15.9089 16.7697 19.3018 18.0142 21.5292 20.3659C22.0489 20.9157 22.5347 21.5879 22.5121 22.343C22.4763 23.484 21.2543 24.2861 20.1133 24.3068C18.9723 24.3275 17.9047 23.7984 16.8653 23.3315C15.826 22.8645 14.6812 22.4371 13.5666 22.6781C12.2768 22.9587 11.3071 24.0959 10.8552 25.333C10.4033 26.57 10.345 27.9144 10.2527 29.2305C10.168 30.2209 9.8912 32.0115 8.53553 32.0115C7.62799 32.0115 6.82212 30.6163 6.41731 29.929C5.83173 28.9305 5.46095 27.8208 5.32867 26.6708C5.1964 25.5208 5.30553 24.3559 5.6491 23.2505Z" fill="#52228F"/>
<path d="M37.8383 20.4039C36.988 20.4116 36.1419 20.2842 35.3316 20.0265C34.5896 19.791 33.904 19.4052 33.3177 18.8931C32.7303 18.3696 32.2687 17.7203 31.9674 16.9935C31.6222 16.1439 31.4545 15.2328 31.4745 14.316C31.4745 13.308 31.6388 12.442 31.9674 11.7181C32.2536 11.0509 32.6812 10.4537 33.2205 9.96778C33.7599 9.48182 34.3982 9.11863 35.0915 8.90327C35.7714 8.68255 36.4818 8.57036 37.1966 8.57083C37.9483 8.56127 38.6958 8.68512 39.4043 8.93664C40.0368 9.16102 40.6212 9.50287 41.1268 9.94422C41.6066 10.3715 41.9891 10.8968 42.2486 11.4845C42.5193 12.0971 42.6559 12.7606 42.6491 13.4303C42.6491 13.9489 42.504 14.3455 42.214 14.6202C41.8742 14.9174 41.4502 15.1014 41.001 15.1464L35.3534 15.9936C35.4368 16.2431 35.5711 16.4726 35.7478 16.6675C35.9246 16.8624 36.14 17.0184 36.3802 17.1257C36.9385 17.3871 37.5494 17.5166 38.1656 17.5043C38.7646 17.5065 39.3609 17.4244 39.9369 17.2604C40.4153 17.1333 40.8749 16.9439 41.3039 16.697C41.5574 16.8592 41.769 17.0791 41.9213 17.3387C42.0868 17.5985 42.1758 17.8997 42.178 18.2077C42.178 18.8923 41.8576 19.4035 41.2166 19.7415C40.7015 20.0103 40.144 20.1888 39.5686 20.2691C38.996 20.357 38.4176 20.402 37.8383 20.4039ZM37.1966 11.4088C36.8704 11.4008 36.5464 11.4634 36.2467 11.5923C35.9983 11.7005 35.7756 11.8602 35.5934 12.0608C35.4275 12.2485 35.2994 12.4664 35.2161 12.7026C35.1333 12.935 35.0832 13.1777 35.0672 13.4239L38.982 12.7821C38.9122 12.4337 38.737 12.1151 38.4801 11.8695C38.1917 11.5623 37.7639 11.4088 37.1966 11.4088Z" fill="#52228F"/>
<path d="M48.6464 8.5706C49.4053 8.56465 50.1621 8.65085 50.9003 8.82731C51.5238 8.97188 52.1144 9.23319 52.6408 9.59744C53.1146 9.92977 53.4976 10.3755 53.7549 10.8938C54.0257 11.4774 54.1575 12.1157 54.1399 12.7588V17.8866C54.1543 18.241 54.0358 18.588 53.8075 18.8595C53.5799 19.1166 53.3135 19.3366 53.0181 19.5116C52.0255 20.1106 50.6294 20.41 48.8299 20.41C48.0962 20.418 47.364 20.3413 46.6479 20.1816C46.0556 20.0528 45.4907 19.8203 44.9793 19.4949C44.5271 19.2041 44.1568 18.8024 43.9036 18.3281C43.6426 17.8187 43.5124 17.2523 43.525 16.6801C43.525 15.6258 43.8382 14.8168 44.4646 14.2529C45.0909 13.689 46.0596 13.3381 47.3705 13.2004L50.3689 12.8808V12.7139C50.3798 12.5151 50.3299 12.3177 50.2258 12.148C50.1217 11.9783 49.9683 11.8444 49.7861 11.7641C49.4011 11.5728 48.8363 11.4778 48.1034 11.4778C47.5337 11.4765 46.9655 11.5376 46.4091 11.6601C45.901 11.77 45.4033 11.9233 44.9215 12.1183C44.7026 11.9554 44.5293 11.7388 44.4184 11.4894C44.2827 11.2152 44.212 10.9135 44.2117 10.6076C44.1938 10.2673 44.295 9.93149 44.4979 9.65777C44.7355 9.38545 45.036 9.17528 45.3733 9.04551C45.8799 8.86353 46.4058 8.74077 46.9405 8.6797C47.5063 8.60795 48.076 8.57151 48.6464 8.5706ZM48.8299 17.5657C49.1175 17.5636 49.4043 17.537 49.6873 17.4861C49.9311 17.4552 50.1675 17.3813 50.3856 17.2679V15.4376L48.7375 15.5749C48.3709 15.5892 48.0118 15.6829 47.685 15.8496C47.5576 15.9124 47.451 16.0106 47.3779 16.1323C47.3049 16.2541 47.2684 16.3944 47.273 16.5363C47.2693 16.6793 47.2995 16.8212 47.3611 16.9503C47.4227 17.0794 47.5138 17.1922 47.6272 17.2795C47.8634 17.4707 48.2651 17.5657 48.8299 17.5657Z" fill="#52228F"/>
<path d="M64.9876 16.7168C64.9876 17.8771 64.5529 18.785 63.6835 19.4405C62.8141 20.096 61.5306 20.4241 59.8329 20.425C59.2349 20.4288 58.6378 20.3828 58.0475 20.2876C57.5587 20.2159 57.0831 20.0732 56.6355 19.8641C56.2781 19.6993 55.9646 19.4526 55.7204 19.144C55.4979 18.8485 55.3809 18.487 55.3879 18.1172C55.3775 17.793 55.457 17.4722 55.6177 17.1904C55.7604 16.9487 55.9467 16.7354 56.1671 16.5615C56.6537 16.8244 57.1632 17.0427 57.6893 17.2135C58.3294 17.4148 58.9977 17.5114 59.6686 17.4998C60.1409 17.4998 60.5042 17.4305 60.7557 17.2931C61.0073 17.1558 61.1331 16.9735 61.1331 16.7438C61.138 16.6425 61.116 16.5418 61.0693 16.4519C61.0226 16.3619 60.953 16.2859 60.8674 16.2316C60.6851 16.1101 60.3801 16.0109 59.9522 15.9338L59.2655 15.7965C57.9383 15.5398 56.9504 15.1316 56.3018 14.572C55.6532 14.0124 55.3289 13.2153 55.3289 12.1807C55.3193 11.6531 55.442 11.1315 55.686 10.6635C55.93 10.1956 56.2873 9.79622 56.7254 9.50198C57.2114 9.17692 57.7492 8.93689 58.3157 8.79218C58.9858 8.61561 59.6765 8.52928 60.3694 8.53547C60.9021 8.53395 61.4341 8.57689 61.9597 8.66382C62.4051 8.73438 62.8395 8.86208 63.2522 9.04375C63.5894 9.19045 63.8875 9.41422 64.1225 9.69708C64.3366 9.96667 64.4497 10.3027 64.4421 10.6469C64.4499 10.9576 64.3835 11.2656 64.2483 11.5454C64.1274 11.7861 63.9598 12.0003 63.7554 12.1756C63.5814 12.0758 63.3972 11.9949 63.206 11.9343C62.9622 11.8487 62.6952 11.7726 62.4051 11.7058C62.115 11.6365 61.8211 11.5775 61.5246 11.5338C61.2558 11.4911 60.9842 11.4683 60.7121 11.4658C60.3155 11.4485 59.9192 11.5065 59.5441 11.6365C59.2694 11.752 59.132 11.9317 59.132 12.1756C59.1318 12.2579 59.1527 12.3389 59.1927 12.4108C59.2327 12.4827 59.2905 12.5431 59.3605 12.5863C59.5128 12.6942 59.8029 12.7934 60.2308 12.8841L60.9419 13.0548C62.4034 13.3911 63.4431 13.8511 64.0609 14.4347C64.6787 15.0182 64.9876 15.779 64.9876 16.7168Z" fill="#52228F"/>
<path d="M68.2583 17.2019C68.0872 16.8211 67.9079 16.3933 67.7205 15.9184C67.5331 15.4435 67.3346 14.9018 67.1249 14.2934C66.9196 13.6841 66.7056 12.9859 66.4832 12.1986C66.2607 11.4114 66.0279 10.5074 65.7849 9.48651C66.0347 9.24891 66.3257 9.05884 66.6436 8.9256C67.015 8.76324 67.4166 8.68144 67.8219 8.68557C68.2896 8.66674 68.7529 8.78257 69.1568 9.0193C69.5068 9.24007 69.766 9.65594 69.9346 10.2669L71.7431 16.5563H71.8343C72.0174 16.0395 72.1945 15.4764 72.3657 14.8671C72.5368 14.2579 72.7079 13.6285 72.8791 12.979C73.0502 12.3313 73.2068 11.6827 73.3489 11.0332C73.4909 10.3837 73.6167 9.74664 73.7262 9.12198C74.2839 8.82993 74.9052 8.68045 75.5347 8.68686C76.0013 8.66853 76.463 8.78818 76.8619 9.03085C77.2119 9.25932 77.3873 9.65594 77.3882 10.2207C77.3804 10.7013 77.3271 11.18 77.229 11.6506C77.1212 12.1935 76.98 12.7685 76.8055 13.3795C76.6309 13.9905 76.4204 14.6194 76.1868 15.2676C75.9532 15.9158 75.7029 16.5512 75.4436 17.1788C75.1843 17.8065 74.9161 18.3956 74.6414 18.9527C74.3667 19.5097 74.0997 20.009 73.8405 20.4519C73.4857 21.0886 73.0882 21.7006 72.6506 22.2835C72.3444 22.6935 71.9912 23.0661 71.5981 23.3938C71.3 23.639 70.9581 23.8254 70.5905 23.9431C70.2486 24.043 69.8942 24.0931 69.538 24.092C68.8962 24.092 68.3772 23.9012 67.9811 23.5195C67.5773 23.1223 67.326 22.5957 67.2713 22.0319C67.7607 21.6494 68.2493 21.2258 68.7371 20.7612C69.2093 20.3127 69.6526 19.8347 70.0643 19.33C69.7475 19.2186 69.4613 19.0344 69.2287 18.7922C68.9343 18.5099 68.6109 17.9797 68.2583 17.2019Z" fill="#52228F"/>
<path d="M84.3031 8.57199C84.9265 8.57155 85.5467 8.66015 86.145 8.83511C86.7155 8.99335 87.2496 9.2615 87.7174 9.62449C88.1967 9.30867 88.7143 9.05506 89.2576 8.86977C89.9269 8.65648 90.627 8.55585 91.3293 8.57199C91.9055 8.57189 92.4792 8.64872 93.0351 8.80046C93.5722 8.94437 94.0771 9.18917 94.5227 9.52181C94.97 9.86598 95.3272 10.3135 95.5637 10.8259C95.8381 11.4491 95.9697 12.1258 95.9487 12.8064V20.0161C95.7123 20.079 95.4717 20.1249 95.2287 20.1534C94.891 20.2003 94.5505 20.2234 94.2095 20.2228C93.9086 20.2251 93.6081 20.2019 93.3111 20.1534C93.0671 20.1178 92.8355 20.0235 92.6359 19.8788C92.4463 19.7338 92.2998 19.5399 92.2123 19.3179C92.1024 19.0217 92.0518 18.7068 92.0635 18.3911V12.9206C92.0635 12.4624 91.9351 12.1313 91.6784 11.9246C91.3724 11.7051 91.0007 11.5964 90.6246 11.6166C90.3883 11.6216 90.1551 11.6722 89.9379 11.7655C89.7395 11.8381 89.554 11.9421 89.3885 12.0735C89.4032 12.1297 89.4109 12.1874 89.4116 12.2455V20.0161C89.167 20.077 88.9188 20.1229 88.6685 20.1534C88.3385 20.1997 88.0057 20.2229 87.6724 20.2228C87.3715 20.2251 87.0709 20.2019 86.7739 20.1534C86.5299 20.118 86.2982 20.0237 86.0988 19.8788C85.9092 19.7338 85.7627 19.5399 85.6752 19.3179C85.5653 19.0217 85.5147 18.7068 85.5263 18.3911V12.9206C85.5263 12.4624 85.3851 12.1313 85.1028 11.9246C84.8052 11.7146 84.4477 11.6065 84.0836 11.6166C83.8413 11.6116 83.6004 11.6553 83.3751 11.7449C83.2029 11.816 83.0345 11.8961 82.8707 11.9849V20.0187C82.6338 20.0817 82.3928 20.1276 82.1493 20.156C81.8121 20.2029 81.472 20.226 81.1315 20.2253C80.8306 20.2276 80.53 20.2044 80.233 20.156C79.9891 20.1201 79.7575 20.0259 79.5578 19.8813C79.3689 19.7357 79.2226 19.542 79.1343 19.3204C79.0255 19.024 78.9754 18.7092 78.9867 18.3937V11.4856C78.9665 11.1386 79.0564 10.7941 79.2434 10.5012C79.443 10.2333 79.6865 10.0012 79.9634 9.81446C80.5555 9.41249 81.2087 9.10907 81.8977 8.91598C82.6788 8.68608 83.4889 8.57022 84.3031 8.57199Z" fill="#52228F"/>
<path d="M109.845 14.4766C109.86 15.3392 109.713 16.197 109.41 17.0052C109.144 17.7095 108.726 18.3467 108.186 18.8714C107.645 19.383 107.002 19.773 106.298 20.0151C105.509 20.282 104.681 20.4123 103.849 20.4001C103.014 20.4122 102.184 20.2726 101.4 19.9881C100.695 19.7316 100.051 19.3302 99.5103 18.8098C98.9768 18.2832 98.5619 17.6486 98.2935 16.9487C97.9935 16.1596 97.8458 15.3207 97.8584 14.4766C97.8468 13.64 97.9944 12.8089 98.2935 12.0276C98.5638 11.3252 98.9813 10.6888 99.518 10.1613C100.059 9.6413 100.702 9.23998 101.407 8.98298C102.192 8.69915 103.022 8.55957 103.856 8.57096C104.692 8.55965 105.522 8.70326 106.305 8.99453C107.009 9.25892 107.651 9.66375 108.194 10.1844C108.73 10.7119 109.148 11.3483 109.418 12.0507C109.713 12.8248 109.858 13.6481 109.845 14.4766ZM101.834 14.4766C101.834 15.4076 102.013 16.1208 102.371 16.6162C102.539 16.856 102.764 17.0498 103.026 17.1799C103.288 17.31 103.578 17.3721 103.871 17.3607C104.162 17.3744 104.452 17.3119 104.712 17.1793C104.972 17.0467 105.193 16.8487 105.353 16.6047C105.695 16.1015 105.866 15.3922 105.866 14.4766C105.866 13.561 105.691 12.855 105.34 12.3587C105.167 12.128 104.942 11.9409 104.684 11.812C104.425 11.6831 104.141 11.616 103.852 11.616C103.563 11.616 103.279 11.6831 103.02 11.812C102.762 11.9409 102.537 12.128 102.364 12.3587C102.015 12.8559 101.84 13.5618 101.839 14.4766H101.834Z" fill="#52228F"/>
<path d="M118.434 19.7409C118.152 19.9399 117.833 20.08 117.496 20.1529C117.039 20.2649 116.57 20.3188 116.099 20.3133C115.577 20.3232 115.056 20.246 114.559 20.0849C114.369 20.028 114.191 19.9339 114.037 19.8081C113.883 19.6823 113.755 19.5273 113.661 19.352C113.524 19.0952 113.36 18.7329 113.169 18.2648C112.978 17.7967 112.776 17.2777 112.562 16.7078C112.347 16.1362 112.126 15.5223 111.898 14.866C111.671 14.2096 111.453 13.561 111.246 12.9201C111.039 12.2792 110.852 11.6614 110.685 11.0667C110.519 10.4719 110.381 9.94526 110.273 9.4866C110.523 9.24901 110.814 9.05893 111.132 8.92569C111.504 8.76334 111.905 8.68154 112.31 8.68567C112.772 8.66637 113.229 8.78189 113.626 9.01811C113.968 9.23888 114.225 9.65475 114.396 10.2657L115.288 13.7672C115.459 14.4518 115.62 15.0735 115.77 15.6322C115.919 16.191 116.034 16.6223 116.112 16.9261H116.227C116.517 15.7965 116.822 14.5451 117.143 13.1717C117.464 11.7983 117.754 10.448 118.012 9.12079C118.291 8.97646 118.587 8.86861 118.894 8.79991C119.205 8.7259 119.524 8.68757 119.844 8.68567C120.317 8.66957 120.786 8.7889 121.194 9.02966C121.56 9.25813 121.743 9.65475 121.743 10.2195C121.725 10.5795 121.668 10.9363 121.571 11.2836C121.457 11.7499 121.312 12.2766 121.136 12.8636C120.961 13.4506 120.755 14.0723 120.519 14.7286C120.282 15.3849 120.041 16.0267 119.797 16.6539C119.553 17.2812 119.313 17.8648 119.076 18.4047C118.831 18.9446 118.617 19.39 118.434 19.7409Z" fill="#52228F"/>
<path d="M129.237 20.4039C128.387 20.4114 127.541 20.284 126.73 20.0265C125.988 19.791 125.303 19.4052 124.717 18.8931C124.129 18.3696 123.668 17.7203 123.366 16.9935C123.022 16.1438 122.854 15.2327 122.875 14.316C122.875 13.308 123.039 12.442 123.366 11.7181C123.653 11.0512 124.081 10.4543 124.62 9.96845C125.159 9.48256 125.797 9.11917 126.49 8.90326C127.171 8.68242 127.882 8.57023 128.597 8.57083C129.349 8.56128 130.097 8.68513 130.806 8.93664C131.436 9.1616 132.018 9.50344 132.522 9.94422C133.002 10.3711 133.385 10.8964 133.644 11.4845C133.914 12.0971 134.051 12.7606 134.044 13.4303C134.044 13.9489 133.899 14.3455 133.609 14.6202C133.269 14.9174 132.845 15.1014 132.396 15.1464L126.742 15.9936C126.826 16.243 126.96 16.4724 127.137 16.6673C127.314 16.8622 127.529 17.0182 127.769 17.1257C128.327 17.3869 128.938 17.5165 129.554 17.5043C130.155 17.5072 130.754 17.4251 131.332 17.2604C131.808 17.133 132.266 16.9435 132.693 16.697C132.946 16.8592 133.158 17.0791 133.31 17.3387C133.475 17.5986 133.564 17.8997 133.567 18.2077C133.567 18.8923 133.246 19.4035 132.604 19.7415C132.089 20.0101 131.532 20.1886 130.957 20.2691C130.388 20.3564 129.813 20.4014 129.237 20.4039ZM128.595 11.4088C128.269 11.4009 127.945 11.4635 127.646 11.5923C127.397 11.7007 127.175 11.8604 126.992 12.0608C126.827 12.2491 126.699 12.4668 126.615 12.7026C126.532 12.935 126.482 13.1777 126.466 13.4239L130.381 12.7821C130.311 12.4338 130.136 12.1153 129.879 11.8695C129.588 11.5623 129.161 11.4088 128.597 11.4088H128.595Z" fill="#52228F"/>
</svg>
